<?xml version="1.0" standalone="no"?>
<!DOCTYPE svg PUBLIC "-//W3C//DTD SVG 20010904//EN"
 "http://www.w3.org/TR/2001/REC-SVG-20010904/DTD/svg10.dtd">
<svg version="1.0" xmlns="http://www.w3.org/2000/svg"
 width="273.000000pt" height="273.000000pt" viewBox="0 0 273.000000 273.000000"
 preserveAspectRatio="xMidYMid meet">
<metadata>
Created by potrace 1.14, written by Peter Selinger 2001-2017
</metadata>
<g transform="translate(0.000000,273.000000) scale(0.100000,-0.100000)"
fill="#000000" stroke="none">
<path d="M0 1365 l0 -1365 1365 0 1365 0 0 1365 0 1365 -1365 0 -1365 0 0
-1365z m1286 505 c64 -31 110 -78 137 -140 6 -14 12 -27 14 -29 1 -2 25 21 53
52 121 133 288 186 440 141 108 -32 168 -93 212 -216 22 -61 23 -77 26 -460
l3 -398 -105 0 -104 0 -4 363 c-3 353 -4 363 -26 412 -42 92 -87 119 -198 118
-109 -1 -196 -54 -240 -148 -24 -50 -24 -53 -24 -397 l0 -348 -110 0 -110 0 0
359 c0 391 -3 417 -58 474 -43 45 -80 60 -152 60 -107 0 -200 -57 -246 -149
-17 -36 -19 -67 -22 -391 l-3 -353 -105 0 -104 0 0 535 0 535 105 0 105 0 0
-82 0 -81 38 40 c94 100 201 145 330 139 68 -3 95 -10 148 -36z"/>
</g>
</svg>
